<?xml version="1.0" standalone="no"?>
<!DOCTYPE svg PUBLIC "-//W3C//DTD SVG 20010904//EN"
 "http://www.w3.org/TR/2001/REC-SVG-20010904/DTD/svg10.dtd">
<svg version="1.0" xmlns="http://www.w3.org/2000/svg"
 width="1018.000000pt" height="1018.000000pt" viewBox="0 0 1018.000000 1018.000000"
 preserveAspectRatio="xMidYMid meet">
<metadata>
Created by potrace 1.14, written by Peter Selinger 2001-2017
</metadata>
<g transform="translate(0.000000,1018.000000) scale(0.100000,-0.100000)"
fill="#000000" stroke="none">
<path d="M3910 9884 c-76 -16 -186 -59 -216 -86 -11 -10 -25 -18 -31 -18 -17
0 -146 -129 -180 -180 -64 -95 -111 -228 -117 -333 -3 -48 -5 -52 -27 -49 -77
8 -213 2 -275 -13 -320 -80 -532 -364 -520 -695 10 -267 171 -498 423 -604 33
-14 71 -27 84 -30 95 -19 122 -22 184 -21 84 2 142 11 195 30 33 12 42 12 52
1 24 -25 197 -211 225 -242 56 -63 200 -218 289 -311 l90 -96 26 44 c14 24 53
80 86 124 277 371 715 597 1178 609 29 0 55 4 59 7 3 4 -3 65 -15 135 -25 158
-28 175 -40 244 -5 30 -12 73 -15 95 -2 22 -7 52 -10 68 -13 71 -15 85 -21
132 -3 28 -7 53 -8 57 0 3 15 21 35 40 369 345 138 968 -366 984 -139 4 -232
-22 -347 -97 l-58 -38 -47 50 c-155 164 -404 240 -633 193z"/>
<path d="M5185 7863 c-402 -69 -759 -314 -965 -664 -30 -50 -55 -95 -56 -98 0
-3 -10 -26 -21 -51 -72 -154 -112 -348 -113 -545 -1 -131 16 -259 54 -405 21
-78 106 -262 155 -334 17 -25 31 -49 31 -55 0 -6 4 -11 8 -11 4 0 16 -14 26
-31 18 -31 184 -203 241 -250 54 -44 169 -116 253 -158 75 -38 234 -97 287
-107 11 -2 31 -6 45 -10 14 -3 32 -7 40 -9 27 -6 194 -18 250 -19 155 0 336
32 478 86 31 12 59 23 62 23 11 1 138 68 185 98 211 130 399 335 509 554 30
61 97 228 94 236 -1 1 4 18 10 37 10 32 19 76 21 107 1 7 14 5 40 -8 162 -78
341 -22 517 162 57 60 174 211 174 224 0 4 11 21 24 38 45 61 40 62 -29 2 -39
-33 -71 -63 -73 -67 -2 -5 -8 -8 -13 -8 -5 0 -18 -8 -29 -17 -44 -39 -126 -81
-220 -115 -63 -22 -174 -27 -235 -10 -58 17 -134 67 -133 89 1 10 -2 47 -7 83
-4 36 -9 76 -10 90 -1 14 -7 43 -14 65 -6 22 -11 42 -11 45 0 3 17 5 38 5 50
-2 140 31 175 64 32 29 75 97 84 133 20 79 -7 184 -63 244 -104 112 -294 115
-387 5 l-25 -30 -58 76 c-205 273 -503 461 -839 528 -136 27 -367 31 -500 8z"/>
<path d="M8028 7354 c-2 -1 -16 -5 -32 -8 -64 -12 -138 -89 -154 -163 -27
-117 9 -200 121 -288 112 -87 130 -112 129 -182 -1 -52 -30 -111 -83 -168 -21
-23 -39 -45 -39 -49 0 -10 101 -106 111 -106 14 0 108 123 134 175 29 59 37
92 35 161 0 56 -29 145 -57 177 -31 37 -36 41 -110 100 -40 32 -77 66 -83 77
-26 49 5 113 55 115 25 2 30 8 42 51 24 85 27 104 12 105 -8 1 -28 2 -46 4
-18 1 -33 1 -35 -1z"/>
<path d="M8377 7345 c-119 -41 -184 -173 -148 -302 13 -49 78 -124 148 -172
68 -46 97 -90 96 -149 0 -71 -7 -88 -68 -163 l-55 -68 47 -43 c25 -24 51 -48
57 -54 7 -7 24 6 59 45 94 108 127 188 121 296 -7 115 -47 177 -178 277 -61
47 -79 73 -78 110 1 37 39 81 64 75 10 -3 21 -1 24 4 8 14 43 143 39 147 -10
10 -95 8 -128 -3z"/>
<path d="M7571 6276 c0 -23 6 -66 12 -96 l12 -55 702 0 703 0 13 60 c8 33 13
76 13 95 l-1 35 -727 1 -728 1 1 -41z"/>
<path d="M2554 6208 c-38 -10 -110 -20 -161 -22 -105 -4 -160 -26 -225 -89
-32 -31 -39 -44 -36 -70 5 -57 80 -89 238 -102 128 -11 146 -14 200 -33 125
-44 220 -89 310 -149 52 -35 103 -69 114 -76 10 -6 24 -17 30 -22 6 -6 74 -61
152 -122 151 -120 185 -136 259 -121 53 11 80 25 142 73 44 34 57 53 88 125
68 158 158 287 214 305 40 12 18 93 -33 120 -45 24 -89 17 -211 -35 -109 -47
-167 -56 -243 -36 -26 7 -142 61 -257 120 -226 114 -313 144 -441 150 -48 2
-94 -3 -140 -16z"/>
<path d="M7630 6061 c0 -3 14 -30 30 -59 39 -67 147 -182 211 -222 27 -18 49
-33 49 -35 0 -1 -15 -2 -32 -2 -42 0 -401 -14 -449 -18 -20 -1 -79 -6 -130
-10 -52 -4 -107 -8 -124 -10 -16 -2 -59 -6 -95 -9 -36 -4 -87 -11 -115 -16
-27 -5 -61 -12 -75 -14 -59 -11 -74 -16 -97 -31 -20 -13 -22 -19 -12 -31 17
-20 105 -44 215 -59 22 -3 53 -7 71 -9 30 -4 136 -14 218 -21 22 -2 94 -7 160
-10 66 -4 129 -9 139 -11 118 -22 1230 -22 1341 0 11 2 58 7 105 10 116 10
164 14 240 21 36 4 79 8 95 10 53 5 160 17 175 20 8 1 40 6 70 10 132 17 207
43 184 64 -24 22 -152 50 -304 66 -30 4 -66 8 -80 10 -14 2 -65 6 -115 10 -49
3 -115 8 -145 10 -75 6 -339 17 -423 17 l-69 0 29 19 c59 39 80 56 143 120 36
37 80 93 97 126 l33 60 -670 -1 c-369 0 -670 -2 -670 -5z"/>
<path d="M7543 5457 c-5 -6 -10 -28 -11 -47 -3 -33 0 -37 60 -70 96 -54 242
-205 302 -312 53 -96 99 -144 173 -181 57 -28 145 -35 185 -13 22 11 158 116
178 136 3 3 21 17 40 31 19 15 45 35 58 45 50 42 71 56 147 104 43 28 88 50
100 51 11 0 29 2 40 4 11 3 45 6 75 9 56 5 138 15 175 21 11 2 33 8 49 14 27
11 28 14 22 53 -13 81 -72 130 -171 143 -28 4 -174 8 -325 9 -270 2 -276 2
-319 -21 -24 -13 -50 -23 -56 -23 -7 0 -18 -6 -24 -14 -12 -15 -85 -37 -140
-42 -24 -3 -50 6 -90 28 -142 80 -127 76 -292 77 -82 0 -154 3 -158 6 -5 2
-13 -1 -18 -8z"/>
<path d="M3145 5321 c-15 -47 -35 -113 -46 -146 -37 -120 -150 -503 -170 -575
-7 -25 -14 -49 -15 -55 -27 -92 -70 -277 -70 -298 1 -25 7 -31 41 -42 22 -7
155 -50 295 -95 140 -45 367 -119 503 -164 l249 -81 -2 -265 c-1 -146 -4 -465
-6 -710 -3 -245 -6 -541 -7 -657 -2 -141 1 -213 8 -214 5 0 179 -2 385 -3 206
-2 378 -4 382 -4 9 -2 78 -109 153 -237 59 -99 225 -426 225 -442 0 -4 7 -21
16 -38 43 -82 156 -385 143 -385 -5 0 -41 9 -81 19 -195 53 -404 45 -558 -19
-204 -86 -368 -271 -470 -530 -31 -77 -49 -140 -42 -141 9 -1 3575 -1 3582 0
13 2 -3 133 -25 206 -54 180 -199 322 -415 404 -58 23 -161 49 -220 57 -19 2
-46 7 -60 10 -14 3 -90 7 -169 10 -80 2 -147 6 -149 8 -2 2 17 42 41 88 24 45
72 137 107 203 34 66 75 143 90 170 15 28 58 109 95 180 119 228 177 339 206
391 l29 51 277 -1 c153 -1 286 2 295 6 16 8 17 26 13 206 -5 185 -10 297 -19
402 -3 25 -7 81 -11 125 -4 44 -9 95 -11 113 -2 17 -6 49 -9 70 -2 20 -7 53
-10 72 -3 19 -7 53 -10 75 -2 22 -14 90 -25 150 -18 102 -23 126 -34 173 -2 9
-9 40 -16 67 -6 28 -13 58 -16 68 -5 17 3 18 138 12 179 -8 273 -13 365 -20
83 -7 86 -5 98 85 4 30 9 64 10 75 2 11 7 54 10 96 3 43 8 88 10 101 4 27 13
125 20 218 2 36 7 97 10 135 3 39 8 99 10 135 3 36 7 92 10 125 2 33 7 104 10
158 l6 98 -28 -6 c-15 -4 -39 -10 -53 -14 -75 -24 -202 15 -295 89 -27 22 -41
27 -43 18 -3 -7 -10 -26 -17 -43 -8 -16 -25 -64 -39 -105 -15 -41 -31 -84 -36
-95 -5 -11 -26 -68 -47 -128 -36 -102 -39 -107 -63 -102 -37 8 -63 13 -106 19
-22 4 -46 8 -54 11 -8 2 -27 6 -41 9 -14 2 -73 13 -130 25 -57 11 -117 23
-133 25 -16 3 -38 18 -50 33 -43 57 -213 220 -276 265 -77 55 -205 120 -275
142 -122 36 -586 131 -735 150 -19 3 -48 7 -65 10 -16 3 -59 8 -95 11 -36 3
-81 7 -100 10 -70 8 -287 18 -375 18 -104 0 -335 -12 -344 -17 -3 -2 -33 -7
-66 -11 -32 -3 -62 -8 -65 -10 -3 -2 -23 -6 -44 -9 -217 -34 -384 -114 -523
-249 l-73 -70 -107 18 c-105 17 -121 20 -173 29 -14 3 -41 8 -60 10 -19 3 -46
8 -60 11 -14 3 -38 8 -55 10 -16 3 -45 8 -63 11 l-33 6 4 259 c3 143 3 259 1
259 -2 0 -35 -8 -72 -18 -111 -31 -214 -16 -300 42 l-50 34 -27 -87z"/>
</g>
</svg>
